<?xml version="1.0" encoding="utf-8"?>
<!-- Generator: Adobe Illustrator 21.0.0, SVG Export Plug-In . SVG Version: 6.00 Build 0)  -->
<svg version="1.1" id="Warstwa_1" xmlns="http://www.w3.org/2000/svg" xmlns:xlink="http://www.w3.org/1999/xlink" x="0px" y="0px"
	 viewBox="0 0 1200 1200" style="enable-background:new 0 0 1200 1200;" xml:space="preserve">
<style type="text/css">
	.st0{fill:#D83D8E;}
	.st1{clip-path:url(#SVGID_2_);fill:#D83D8E;}
</style>
<g id="Warstwa_1_1_">
	<g id="Warstwa_3">
	</g>
</g>
<path class="st0" d="M1187.8,776.9V379.8h1V10.8h-1v-0.3H925.4v0.3h-505l-0.3-0.3L120.2,310.4l0,0L10.3,420.2l1.9,1.9l-0.3,0.3
	l-0.6-0.6V819h-1V1188h1v0.3h262.4v-0.3h505l0.3,0.3l299.8-299.8l0,0l109.9-109.9l-1.9-1.9l0.3-0.3L1187.8,776.9z M1077.9,734.1
	l-344,344H121.2V464.8l344-344h612.6V734.1z"/>
<g>
	<defs>
		<rect id="SVGID_1_" x="251.3" y="250.8" width="697.5" height="697.5"/>
	</defs>
	<clipPath id="SVGID_2_">
		<use xlink:href="#SVGID_1_"  style="overflow:visible;"/>
	</clipPath>
	<path class="st1" d="M600.1,414L600.1,414c77.1,0,143.2,47.1,171.3,114l23.7-41l0.3-0.2l6.2-10.7
		c-41.6-67.7-116.2-112.8-201.4-112.8c-55.2,0-106,18.9-146.2,50.7H600.1z"/>
	<path class="st1" d="M762.4,689.4c-31.6,57.1-92.5,95.7-162.4,95.7c-8,0-15.9-0.5-23.7-1.5l23.7,41l6.4,11.1
		c127.5-3.4,229.8-107.9,229.8-236.2c0-11.5-0.8-22.8-2.4-33.9L762.4,689.4z"/>
	<path class="st1" d="M440.9,694.9c-16.7-27.9-26.4-60.5-26.4-95.4c0-42.3,14.2-81.3,38-112.5h-47.4h-12.8
		c-18.1,33.4-28.5,71.8-28.5,112.5c0,99.6,61.6,184.7,148.7,219.5L440.9,694.9z"/>
</g>
<g>
	<path class="st0" d="M660.6,294.7L660.6,294.7c126.6,0,235.2,77.3,281.2,187.2l38.9-67.3l0.5-0.3l10.2-17.6
		c-68.3-111.1-190.8-185.2-330.8-185.2c-90.6,0-174.1,31.1-240.1,83.2H660.6z"/>
	<path class="st0" d="M539.5,905.5L539.5,905.5c-126.6,0-235.2-77.3-281.2-187.2l-38.9,67.3l-0.5,0.3l-10.2,17.6
		C277,914.6,399.5,988.7,539.5,988.7c90.6,0,174.1-31.1,240.1-83.2H539.5z"/>
</g>
</svg>
