<?xml version="1.0" encoding="utf-8"?>
<!-- Generator: Adobe Illustrator 21.0.0, SVG Export Plug-In . SVG Version: 6.00 Build 0)  -->
<svg version="1.1" id="Warstwa_1" xmlns="http://www.w3.org/2000/svg" xmlns:xlink="http://www.w3.org/1999/xlink" x="0px" y="0px"
	 viewBox="0 0 838.2 289" style="enable-background:new 0 0 838.2 289;" xml:space="preserve">
<style type="text/css">
	.st0{clip-path:url(#SVGID_2_);fill:#D83D8E;}
	.st1{clip-path:url(#SVGID_4_);fill:#D83D8E;}
	.st2{clip-path:url(#SVGID_6_);fill:#D83D8E;}
	.st3{fill:#D83D8E;}
	.st4{enable-background:new    ;}
</style>
<g id="Warstwa_1_1_">
	<g id="Warstwa_3">
	</g>
</g>
<g>
	<g id="Warstwa_1_3_">
		<g id="Warstwa_3_2_">
		</g>
	</g>
	<g>
		<g>
			<g>
				<defs>
					<rect id="SVGID_1_" x="85.2" y="77.9" width="133.4" height="133.4"/>
				</defs>
				<clipPath id="SVGID_2_">
					<use xlink:href="#SVGID_1_"  style="overflow:visible;"/>
				</clipPath>
				<path class="st0" d="M151.9,109.1L151.9,109.1c14.7,0,27.4,9,32.8,21.8l4.5-7.8h0.1l1.2-2c-8-12.9-22.2-21.6-38.5-21.6
					c-10.6,0-20.3,3.6-28,9.7L151.9,109.1L151.9,109.1z"/>
			</g>
		</g>
		<g>
			<g>
				<defs>
					<rect id="SVGID_3_" x="85.2" y="77.9" width="133.4" height="133.4"/>
				</defs>
				<clipPath id="SVGID_4_">
					<use xlink:href="#SVGID_3_"  style="overflow:visible;"/>
				</clipPath>
				<path class="st1" d="M182.9,161.7c-6,10.9-17.7,18.3-31.1,18.3c-1.5,0-3-0.1-4.5-0.3l4.5,7.8l1.2,2.1c24.4-0.7,44-20.6,44-45.2
					c0-2.2-0.2-4.4-0.5-6.5L182.9,161.7z"/>
			</g>
		</g>
		<g>
			<g>
				<defs>
					<rect id="SVGID_5_" x="85.2" y="77.9" width="133.4" height="133.4"/>
				</defs>
				<clipPath id="SVGID_6_">
					<use xlink:href="#SVGID_5_"  style="overflow:visible;"/>
				</clipPath>
				<path class="st2" d="M121.5,162.8c-3.2-5.3-5-11.6-5-18.2c0-8.1,2.7-15.5,7.3-21.5h-9.1h-2.4c-3.5,6.4-5.5,13.7-5.5,21.5
					c0,19,11.8,35.3,28.4,42L121.5,162.8z"/>
			</g>
		</g>
	</g>
	<g>
		<path class="st3" d="M163.5,86.3L163.5,86.3c24.2,0,45,14.8,53.8,35.8l7.4-12.9l0.1-0.1l2-3.4c-13.1-21.2-36.5-35.4-63.3-35.4
			c-17.3,0-33.3,5.9-45.9,15.9L163.5,86.3L163.5,86.3z"/>
		<path class="st3" d="M140.3,203.1L140.3,203.1c-24.2,0-45-14.8-53.8-35.8l-7.4,12.9l-0.1,0.1l-2,3.4
			c13.1,21.2,36.5,35.4,63.3,35.4c17.3,0,33.3-5.9,45.9-15.9h-45.9V203.1z"/>
	</g>
</g>
<path class="st3" d="M60.3,236.1V118.8L126.1,53h19.4c0.2-7,0.4-14,0.7-21h-28.7l-0.1-0.1L60.1,89.3l-21,21l0.4,0.4l-0.1,0.1
	l-0.1-0.1v76h-0.2v70.6h0.2v0.1h50.2v-0.1h51.7c0.2-7,0.4-14,0.7-21H60.3V236.1z"/>
<path class="st3" d="M806.3,178.5v-75.9h0.2V32h-0.2v-0.1h-50.2V32H135.5c-0.3,7-0.5,14-0.7,21h650.5v117.3l0,0l-65.8,65.8H117.9
	c-0.2,7.1-0.5,14-0.7,21H728l0.1,0.1l57.3-57.3l21-21l-0.4-0.4l0.1-0.1L806.3,178.5z"/>
<g class="st4">
	<path class="st3" d="M246,105.4h20.6c5,0,9,0.3,11.9,1c2.9,0.7,5.1,1.9,6.4,3.6c1.3,1.7,2,4.1,2,7.2v9.7c0,3.4-0.7,6-2.2,7.9
		c-1.5,1.9-3.8,3.2-6.9,4c-3.1,0.8-7.4,1.2-12.7,1.2h-6.8v16.7H246V105.4z M266.2,131.7c3.2,0,5.5-0.4,6.8-1.1c1.3-0.8,2-2.1,2-3.9
		v-8.2c0-1.7-0.6-2.8-1.9-3.3c-1.2-0.5-3.6-0.8-7.1-0.8h-7.7v17.4H266.2z"/>
	<path class="st3" d="M294.1,145.2v-13.8c0-4.8,1.5-8.3,4.6-10.5c3.1-2.2,7.9-3.2,14.3-3.2c6.1,0,10.5,1,13.4,3.1
		c2.8,2.1,4.2,5.6,4.2,10.6v9.4h-24.9v3.5c0,2.2,0.8,3.8,2.4,4.8c1.6,1,4.4,1.4,8.6,1.4c3.8,0,8.1-0.6,12.8-1.7v7.4
		c-4.7,1-9.7,1.5-15.1,1.5C300.8,157.6,294.1,153.5,294.1,145.2z M319.6,134.2v-5.5c0-1.3-0.5-2.2-1.5-2.9c-1-0.6-2.8-1-5.2-1
		c-2.8,0-4.7,0.3-5.6,1c-1,0.7-1.5,1.6-1.5,2.9v5.5H319.6z"/>
	<path class="st3" d="M339.5,118.5h11.4v4.7c0.9-3.6,5-5.5,12.3-5.5c4.9,0,8.4,0.9,10.3,2.7c2,1.8,3,4.6,3,8.4v28.1h-11.6v-26.6
		c0-1.5-0.1-2.6-0.4-3.3c-0.3-0.7-0.9-1.3-1.7-1.6c-0.9-0.3-2.2-0.5-4-0.5c-2.3,0-3.9,0.1-5,0.4c-1.1,0.3-1.8,0.8-2.1,1.5
		c-0.4,0.7-0.6,1.9-0.6,3.4v26.6h-11.6V118.5z"/>
	<path class="st3" d="M386.6,118.5H398v4.7c0.9-3.6,5-5.5,12.3-5.5c4.9,0,8.4,0.9,10.3,2.7c2,1.8,3,4.6,3,8.4v28.1H412v-26.6
		c0-1.5-0.1-2.6-0.4-3.3c-0.3-0.7-0.9-1.3-1.7-1.6c-0.9-0.3-2.2-0.5-4-0.5c-2.3,0-3.9,0.1-5,0.4c-1.1,0.3-1.8,0.8-2.1,1.5
		c-0.4,0.7-0.6,1.9-0.6,3.4v26.6h-11.6V118.5z"/>
	<path class="st3" d="M444.6,156.5l-15.3-38h12.6l8.6,27.1l7.8-27.1h12l-21,54.8h-11.7L444.6,156.5z"/>
	<path class="st3" d="M494.8,105.4h20.6c5,0,9,0.3,11.9,1s5.1,1.9,6.4,3.6c1.3,1.7,2,4.1,2,7.2v9.7c0,3.4-0.7,6-2.2,7.9
		c-1.5,1.9-3.8,3.2-6.9,4c-3.1,0.8-7.4,1.2-12.7,1.2h-6.8v16.7h-12.4V105.4z M515,131.7c3.2,0,5.5-0.4,6.8-1.1s2-2.1,2-3.9v-8.2
		c0-1.7-0.6-2.8-1.9-3.3c-1.2-0.5-3.6-0.8-7.1-0.8h-7.7v17.4H515z"/>
	<path class="st3" d="M544.3,104.6h11.6v9.4h-11.6V104.6z M544.3,118.5h11.6v38.4h-11.6V118.5z"/>
	<path class="st3" d="M566.3,118.5h11.4v4.7c0.9-3.6,5-5.5,12.3-5.5c4.9,0,8.4,0.9,10.3,2.7c2,1.8,3,4.6,3,8.4v28.1h-11.6v-26.6
		c0-1.5-0.1-2.6-0.4-3.3c-0.3-0.7-0.9-1.3-1.7-1.6c-0.9-0.3-2.2-0.5-4-0.5c-2.3,0-3.9,0.1-5,0.4c-1.1,0.3-1.8,0.8-2.1,1.5
		c-0.4,0.7-0.6,1.9-0.6,3.4v26.6h-11.6V118.5z"/>
	<path class="st3" d="M627.4,157.5c-1.2-0.1-2.6-0.2-4.3-0.4c-1.7-0.2-3.1-0.6-4.2-1.1c-1.1-0.5-2.2-1.3-3.4-2.4
		c-2.2-1.8-3.2-4.9-3.2-9.2v-12.8c0-3.5,0.8-6.4,2.4-8.7c0.6-0.8,1.4-1.6,2.6-2.3c1.1-0.7,2.3-1.3,3.4-1.7c1-0.3,2.2-0.6,3.8-0.8
		s3-0.3,4.2-0.4h4.2c3,0,6.8,0.5,11.6,1.4v7.6c-5.4-1.3-9.6-1.9-12.5-1.9c-5.3,0-8,1.8-8,5.4v14.1c0,4.1,2.9,6.1,8.8,6.1
		c2.9,0,6.9-0.6,12.3-1.7v7.6c-4.8,0.9-9.1,1.3-13,1.3C630.2,157.6,628.6,157.6,627.4,157.5z"/>
	<path class="st3" d="M651.7,101.4h11.6v21.8c0.7-3.6,4.8-5.5,12.1-5.5c4.9,0,8.4,0.9,10.3,2.7c2,1.8,3,4.6,3,8.4v28.1h-11.6v-26.8
		c0-1.5-0.1-2.6-0.4-3.3c-0.3-0.7-0.9-1.2-1.7-1.5c-0.8-0.3-2.2-0.4-4-0.4c-2.3,0-3.9,0.1-5,0.4c-1.1,0.3-1.8,0.8-2.1,1.5
		c-0.4,0.7-0.6,1.8-0.6,3.4v26.8h-11.6V101.4z"/>
	<path class="st3" d="M697.7,145.2v-13.8c0-4.8,1.5-8.3,4.6-10.5c3.1-2.2,7.9-3.2,14.3-3.2c6.1,0,10.5,1,13.4,3.1
		c2.8,2.1,4.2,5.6,4.2,10.6v9.4h-24.9v3.5c0,2.2,0.8,3.8,2.4,4.8c1.6,1,4.4,1.4,8.6,1.4c3.8,0,8.1-0.6,12.8-1.7v7.4
		c-4.7,1-9.7,1.5-15.1,1.5C704.5,157.6,697.7,153.5,697.7,145.2z M723.2,134.2v-5.5c0-1.3-0.5-2.2-1.5-2.9c-1-0.6-2.8-1-5.2-1
		c-2.8,0-4.7,0.3-5.6,1c-1,0.7-1.5,1.6-1.5,2.9v5.5H723.2z"/>
	<path class="st3" d="M743.1,118.5h11v6.7c0-1.2,0.5-2.4,1.5-3.6c1-1.2,2.3-2.1,3.8-2.9c1.6-0.7,3.1-1.1,4.6-1.1h4.1v9.6h-4
		c-3.3,0-5.7,0.5-7.3,1.5c-1.6,1-2.3,2.7-2.3,5v23.1h-11.6V118.5z"/>
</g>
<g class="st4">
	<path class="st3" d="M245.6,176.1h11.4v1.8h-8.9v5.6h8v1.8h-8v6.1h9.1v1.8h-11.7V176.1z"/>
	<path class="st3" d="M258.8,180.4h2.5l3.5,10.6h0.1l3.4-10.6h2.3l-4.4,12.7h-2.8L258.8,180.4z"/>
	<path class="st3" d="M272.4,189.5v-5c0-1.5,0.4-2.6,1.3-3.3c0.9-0.7,2.3-1,4.3-1c1.9,0,3.2,0.3,4,1c0.8,0.6,1.2,1.8,1.2,3.4v2.8
		h-8.5v1.9c0,0.9,0.3,1.5,0.9,1.9c0.6,0.4,1.6,0.6,2.8,0.6c1.2,0,2.6-0.2,4.3-0.6v1.8c-1.6,0.3-3.1,0.5-4.6,0.5
		C274.3,193.4,272.4,192.1,272.4,189.5z M280.9,185.8v-2c0-0.8-0.2-1.3-0.7-1.6c-0.5-0.3-1.3-0.4-2.4-0.4c-1.1,0-1.9,0.1-2.4,0.4
		c-0.5,0.3-0.7,0.8-0.7,1.6v2H280.9z"/>
	<path class="st3" d="M286.9,180.4h2.2v2.1c0-0.4,0.2-0.8,0.5-1.1c0.3-0.4,0.8-0.6,1.3-0.9c0.5-0.2,1.1-0.3,1.6-0.3h1.2v2h-1.3
		c-1.1,0-1.9,0.1-2.4,0.4s-0.7,0.8-0.7,1.6v8.9h-2.4V180.4z"/>
	<path class="st3" d="M299.1,193.3l-4.9-12.9h2.6l3.5,10.4h0.1l3.2-10.4h2.4l-6.4,18.1h-2.5L299.1,193.3z"/>
	<path class="st3" d="M314.1,180.4h2.3v1.4h0c0.2-1.1,1.6-1.6,4.3-1.6c1.6,0,2.8,0.3,3.6,1c0.8,0.7,1.2,1.5,1.2,2.6v5.2
		c0,0.8-0.1,1.4-0.3,2c-0.2,0.6-0.5,1-0.9,1.3c-0.3,0.3-0.7,0.5-1.3,0.7c-0.6,0.2-1.1,0.3-1.6,0.3c-0.5,0.1-1.1,0.1-1.8,0.1
		c-0.8,0-1.5-0.1-2.1-0.3c-0.6-0.2-1-0.5-1.2-0.8v6.3h-2.4V180.4z M321.9,191.6c0.5-0.1,0.8-0.4,1-0.7c0.2-0.3,0.3-0.9,0.3-1.6v-4.7
		c0-0.8-0.1-1.4-0.3-1.8c-0.2-0.4-0.6-0.6-1-0.8c-0.5-0.1-1.2-0.2-2.1-0.2s-1.6,0.1-2.1,0.2c-0.5,0.1-0.8,0.4-1,0.8s-0.3,1-0.3,1.8
		v4.7c0,0.7,0.1,1.3,0.3,1.6c0.2,0.4,0.5,0.6,1,0.7c0.5,0.1,1.2,0.2,2,0.2C320.8,191.8,321.5,191.7,321.9,191.6z"/>
	<path class="st3" d="M328.8,189.5v-5c0-1.5,0.4-2.6,1.3-3.3c0.9-0.7,2.3-1,4.3-1c1.9,0,3.2,0.3,4,1c0.8,0.6,1.2,1.8,1.2,3.4v2.8
		h-8.5v1.9c0,0.9,0.3,1.5,0.9,1.9c0.6,0.4,1.6,0.6,2.8,0.6c1.2,0,2.6-0.2,4.3-0.6v1.8c-1.6,0.3-3.1,0.5-4.6,0.5
		C330.8,193.4,328.8,192.1,328.8,189.5z M337.4,185.8v-2c0-0.8-0.2-1.3-0.7-1.6c-0.5-0.3-1.3-0.4-2.4-0.4c-1.1,0-1.9,0.1-2.4,0.4
		c-0.5,0.3-0.7,0.8-0.7,1.6v2H337.4z"/>
	<path class="st3" d="M343.3,180.4h2.4v1.5c0.2-1.2,1.6-1.8,4.2-1.8c1.6,0,2.8,0.3,3.4,0.9c0.7,0.6,1,1.5,1,2.8v9.3h-2.4V184
		c0-0.3,0-0.6-0.1-0.8c-0.1-0.2-0.2-0.4-0.3-0.6c-0.3-0.4-1.1-0.7-2.3-0.7c-0.9,0-1.6,0.1-2.1,0.2c-0.5,0.1-0.8,0.3-1,0.6
		c-0.2,0.3-0.3,0.7-0.3,1.3v9.2h-2.4V180.4z"/>
	<path class="st3" d="M358.4,180.4h2.4v1.5c0.2-1.2,1.6-1.8,4.2-1.8c1.6,0,2.8,0.3,3.4,0.9c0.7,0.6,1,1.5,1,2.8v9.3h-2.4V184
		c0-0.3,0-0.6-0.1-0.8c-0.1-0.2-0.2-0.4-0.3-0.6c-0.3-0.4-1.1-0.7-2.3-0.7c-0.9,0-1.6,0.1-2.1,0.2c-0.5,0.1-0.8,0.3-1,0.6
		c-0.2,0.3-0.3,0.7-0.3,1.3v9.2h-2.4V180.4z"/>
	<path class="st3" d="M376.4,193.3l-4.9-12.9h2.6l3.5,10.4h0.1l3.2-10.4h2.4l-6.4,18.1h-2.5L376.4,193.3z"/>
	<path class="st3" d="M394.7,193.3c-0.4,0-0.8-0.1-1.4-0.3c-0.5-0.1-1-0.3-1.3-0.6c-0.3-0.3-0.6-0.7-0.8-1.2c-0.2-0.5-0.3-1.2-0.3-2
		v-4.7c0-1.4,0.3-2.4,0.8-3c0.3-0.3,0.6-0.6,0.9-0.8c0.3-0.2,0.7-0.3,1.2-0.4c0.5-0.1,0.9-0.1,1.3-0.1c0.4,0,0.9,0,1.6,0
		c1.2,0,2.4,0.1,3.6,0.4v1.7c-1.4-0.3-2.7-0.5-3.9-0.5c-0.9,0-1.6,0.1-2,0.2s-0.7,0.4-0.9,0.7c-0.2,0.3-0.2,0.9-0.2,1.6v5.2
		c0,0.6,0.1,1.1,0.3,1.4c0.2,0.3,0.5,0.5,1,0.7c0.5,0.1,1.2,0.2,2.1,0.2c1.3,0,2.6-0.2,3.8-0.5v1.8c-1.2,0.2-2.5,0.4-4.1,0.4
		C395.7,193.4,395.1,193.4,394.7,193.3z"/>
	<path class="st3" d="M406.5,193.3c-0.6-0.1-1.1-0.2-1.7-0.5c-0.6-0.3-1-0.7-1.3-1.3c-0.3-0.6-0.4-1.4-0.4-2.4v-4.4
		c0-0.8,0.1-1.5,0.3-2.1c0.2-0.6,0.4-1.1,0.8-1.4c0.3-0.3,0.7-0.5,1.2-0.7c0.5-0.2,1.1-0.3,1.6-0.3c0.6,0,1.3-0.1,2-0.1
		c0.9,0,1.6,0,2.1,0.1c0.5,0,1,0.1,1.5,0.3c0.5,0.2,1,0.4,1.3,0.7c0.3,0.3,0.6,0.8,0.8,1.4c0.2,0.6,0.3,1.3,0.3,2.1v4.4
		c0,1.5-0.3,2.6-1,3.3c-0.3,0.3-0.7,0.5-1.2,0.7s-1.1,0.3-1.6,0.3c-0.7,0-1.3,0.1-2,0.1C407.9,193.4,407.1,193.4,406.5,193.3z
		 M410.6,191.8c0.3,0,0.7-0.1,1-0.3c0.3-0.1,0.5-0.4,0.7-0.7c0.1-0.3,0.2-0.8,0.2-1.3v-5.1c0-0.8-0.1-1.4-0.3-1.7s-0.5-0.6-1-0.7
		c-0.5-0.1-1.2-0.2-2.2-0.2c-1,0-1.7,0.1-2.2,0.2c-0.5,0.1-0.8,0.3-1,0.7s-0.3,0.9-0.3,1.7v5.1c0,0.6,0.1,1,0.2,1.3
		c0.1,0.3,0.4,0.6,0.7,0.7c0.3,0.2,0.6,0.3,1,0.3c0.3,0,0.9,0.1,1.6,0.1S410.3,191.8,410.6,191.8z"/>
	<path class="st3" d="M419.5,192.5c-0.7-0.6-1-1.5-1-2.8v-9.3h2.4v9.2c0,0.3,0,0.6,0.1,0.8c0.1,0.2,0.2,0.4,0.3,0.6
		c0.3,0.5,1.1,0.7,2.3,0.7c1.3,0,2.2-0.1,2.7-0.4c0.5-0.2,0.8-0.7,0.8-1.3v-9.6h2.4v12.7h-2.4v-1.5c-0.2,1.2-1.6,1.8-4.2,1.8
		C421.3,193.4,420.2,193.1,419.5,192.5z"/>
	<path class="st3" d="M433.5,180.4h2.4v1.5c0.2-1.2,1.6-1.8,4.2-1.8c1.6,0,2.8,0.3,3.4,0.9c0.7,0.6,1,1.5,1,2.8v9.3h-2.4V184
		c0-0.3,0-0.6-0.1-0.8c-0.1-0.2-0.2-0.4-0.3-0.6c-0.3-0.4-1.1-0.7-2.3-0.7c-0.9,0-1.6,0.1-2.1,0.2c-0.5,0.1-0.8,0.3-1,0.6
		c-0.2,0.3-0.3,0.7-0.3,1.3v9.2h-2.4V180.4z"/>
	<path class="st3" d="M451.3,193c-0.6-0.2-1.1-0.6-1.3-1.2c-0.3-0.6-0.4-1.4-0.4-2.4V182h-2.8v-1.5h2.8v-3.9h2.4v3.9h4.5v1.5H452
		v7.6c0,0.6,0.1,1.1,0.2,1.4s0.4,0.5,0.8,0.7c0.4,0.1,0.9,0.2,1.6,0.2c0.2,0,0.9-0.1,1.9-0.2v1.5c-0.9,0.1-1.8,0.2-2.6,0.2
		C452.8,193.4,452,193.3,451.3,193z"/>
	<path class="st3" d="M458.6,193.1v-1.8c2,0.3,3.5,0.5,4.4,0.5c1.1,0,1.9-0.1,2.4-0.3s0.7-0.6,0.7-1.2v-1.3c0-0.5-0.2-0.9-0.6-1.2
		s-1-0.3-1.8-0.3h-1.4c-1.3,0-2.3-0.3-3-0.8s-1-1.3-1-2.3v-1.2c0-2,1.9-3,5.7-3c0.3,0,1.6,0.1,3.9,0.2v1.7c-1.6-0.2-2.9-0.4-4-0.4
		c-1.2,0-2.1,0.1-2.5,0.4c-0.5,0.2-0.7,0.7-0.7,1.2v1.1c0,0.9,0.8,1.3,2.3,1.3h1.5c2.7,0,4,1,4,3v1.1c0,1.3-0.5,2.2-1.4,2.8
		c-0.9,0.6-2.3,0.8-4.2,0.8C461.6,193.4,460.2,193.3,458.6,193.1z"/>
</g>
</svg>
